<?xml version="1.0" encoding="UTF-8"?>
<svg id="Layer_1" data-name="Layer 1" xmlns="http://www.w3.org/2000/svg" viewBox="0 0 2885.28 2908.48">
  <defs>
    <style>
      .cls-1 {
        fill: #fff;
        stroke-width: 0px;
      }
    </style>
  </defs>
  <path class="cls-1" d="M1526.53.03c2.04,1.1,4.29,1.2,6.53,1.26,7.99.22,15.98.44,23.97.65,17.59.46,35.12,1.73,52.65,3.2,9.56.8,19.12,1.58,28.66,2.53,9.54.95,19.07,2.01,28.58,3.18,10.78,1.33,21.56,2.74,32.31,4.32,13.91,2.05,27.83,4.03,41.67,6.52,21.06,3.79,42.05,7.98,62.94,12.66,51.48,11.55,102.14,25.98,151.94,43.39,144.58,50.56,277.35,122.87,397.71,217.59,187.21,147.32,328.03,330.48,422.09,549.45,31.23,72.7,55.67,147.67,73.67,224.74,6.55,28.02,12.27,56.19,17.13,84.55,3.29,19.23,6.15,38.51,8.65,57.85,1.85,14.26,3.19,28.59,4.63,42.91,1.08,10.82,1.99,21.65,2.88,32.49.36,4.46.54,8.94.65,13.41.25,9.91.47,19.83.56,29.74.03,3.84.58,7.56,1.48,11.26v94.05c.3,1.37-.82,2.34-1,3.54-.28,1.89-.35,3.82-.4,5.73-.15,5.44-.32,10.87-.34,16.31-.07,19.22-1.54,38.34-3.55,57.43-1.57,14.95-2.85,29.93-4.77,44.83-2.48,19.34-5.34,38.63-8.61,57.86-5.36,31.53-11.8,62.82-19.27,93.92-16.38,68.2-37.94,134.73-64.61,199.59-57.91,140.83-136.89,268.67-236.75,383.6-74.63,85.9-158.59,161.44-251.72,226.81-2.6,1.83-5.36,3.45-8.11,5.05-.25.15-1.26-.43-1.44-.87-.36-.85-.51-1.85-.51-2.79-.03-21.11-.03-42.23-.03-63.34,0-.64.03-1.28.06-1.92.08-1.67.62-3.11,2-4.16,2.04-1.55,4.06-3.11,6.11-4.64,62.67-46.84,120.9-98.68,174.32-155.85,140.53-150.4,241.49-323.8,301.95-520.68,13.72-44.66,24.81-89.96,33.73-135.8,4.52-23.22,8.36-46.58,11.51-70.03,2.6-19.33,4.75-38.71,6.6-58.14,2.19-22.94,3.65-45.92,4.63-68.92.8-18.85.77-37.74.97-56.61.1-8.95-.09-17.91-.2-26.87-.31-23.36-1.53-46.67-3.38-69.95-.86-10.84-1.55-21.7-2.64-32.51-1.39-13.68-3.02-27.33-4.74-40.97-1.28-10.15-2.84-20.26-4.31-30.39-3.12-21.52-7.11-42.88-11.4-64.2-8.9-44.23-20.13-87.86-33.66-130.88-44.72-142.21-111.27-273.38-200.34-392.92-135.53-181.86-306.2-320.68-511.93-416.21-76.74-35.64-156.36-63.14-238.5-83.32-25.44-6.25-51.08-11.64-76.88-16.3-17.93-3.24-35.9-6.24-53.94-8.74-19.31-2.67-38.69-4.86-58.1-6.75-22.29-2.17-44.62-3.75-66.97-4.75-26.2-1.18-52.43-1.51-78.66-1.05-10.87.19-21.75.28-32.62.68-17.26.63-34.5,1.55-51.7,3.08-9.87.88-19.76,1.59-29.62,2.54-9.23.89-18.44,1.91-27.64,3.05-11.1,1.38-22.19,2.83-33.26,4.46-13.59,2.01-27.19,4.01-40.72,6.42-22.02,3.92-43.95,8.35-65.73,13.42-54.83,12.77-108.7,28.76-161.47,48.38-141.25,52.52-270.07,126.69-385.82,223.16-176.3,146.93-306.59,327.27-390.56,540.97-7.25,18.45-13.94,37.1-20.33,55.86-.72,2.12-1.43,4.24-2.19,6.34-.59,1.63-1.77,2.64-3.52,2.79-1.59.14-3.19.19-4.79.2-15.67.01-31.34.02-47.02,0-1.91,0-3.82-.19-5.73-.33-1.17-.08-2.1-1.6-1.75-2.85.44-1.53.91-3.06,1.39-4.58,9.47-29.87,20.03-59.36,31.66-88.45,76.1-190.32,188.56-356.03,337.47-496.78,137.74-130.19,295.7-228.06,473.52-293.73,57.02-21.06,115.21-38.16,174.56-51.36,26.52-5.9,53.16-11.12,79.99-15.43,17.67-2.84,35.36-5.56,53.15-7.54,14.61-1.63,29.21-3.46,43.84-4.88,11.45-1.11,22.96-1.62,34.43-2.59,18.5-1.57,37.05-1.84,55.59-2.36,3.17-.09,6.43.18,9.41-1.36h55.65v.03h0Z"/>
  <path class="cls-1" d="M1968.35,1713.19c-13.75,0-27.5-.05-41.26.03-4.84.03-9.47-.69-14.14-2.09-15.65-4.7-31.64-7.59-47.96-8.97-12.13-1.03-24.26-1.39-36.41-1.51-51.81-.49-103.61-1.23-155.42-1.41-65.88-.23-131.76-.05-197.64.03-32.3.04-64.6.27-96.9.36-37.74.11-75.47.15-113.21.23-20.15.04-40.29.11-60.44.16-3.2,0-6.41.09-9.59-.15-9.91-.75-19.8-.41-29.71.16-7.34.43-14.7.56-22.05.48-39.01-.4-78.03-.88-117.04-1.39-13.11-.17-26.22-.68-39.33-.67-15.03,0-30.06.37-45.08.69-3.18.07-6.37.58-9.54.98-5.74.72-11.45.83-17.2-.15-2.82-.48-5.72-.64-8.58-.66-16.63-.08-33.26-.11-49.89-.08-11.53.02-22.93.93-34.32,3.08-15.71,2.97-31.68,4.15-47.63,5.27-7.38.52-14.72-.39-21.96-1.64-6-1.03-11.7-3.32-16.89-6.58-4.6-2.89-9.09-5.94-13.56-9.03-3.94-2.73-7.78-5.62-11.67-8.41-11.63-8.34-24.31-10.45-38.26-7.22-14.03,3.25-27.77,7.4-41.49,11.7-10.97,3.44-21.93,6.94-33.17,9.44-6.86,1.53-13.74,3.1-20.79,3.41-3.18.14-6.41.11-9.56-.32-8.46-1.16-14.98-5.55-19.02-13.05-3.67-6.81-5.99-14.09-5.86-22,.12-6.72.03-13.43.02-20.15-.05-24.19,9.48-44.03,27.38-59.98,9.99-8.9,21.7-14.54,34.73-17.52,9.39-2.14,18.95-2.93,28.51-3.62,15.63-1.13,31.24-2.41,46.79-4.33,9.83-1.21,19.6-2.95,29.18-5.54,3.06-.83,6.11-1.91,8.96-3.3,4.46-2.18,6.42-6.4,5.45-11.16-1.16-5.68-3.29-11.01-6.26-16-2.63-4.42-5.74-8.49-9.3-12.18-2.88-2.99-5.85-5.92-8.96-8.67-16.77-14.88-32.53-30.75-47.46-47.48-2.76-3.1-5.69-6.08-8.75-8.88-7.38-6.76-15.63-12.14-25.14-15.48-1.18-.42-2.26-1.14-3.38-1.72-.66-.34-.97-1.98-.44-2.55,1.07-1.16,2.08-2.43,3.34-3.35,7.34-5.39,15.68-8.68,24.44-10.68,16.56-3.79,33.38-5.73,50.39-5.75,2.55,0,5.11.2,7.66.34,5.43.31,10.85.77,16.28.93,9.62.28,19.13,1.25,28.44,3.82.92.25,1.9.3,2.82.57,7.87,2.26,15.2.41,22.27-3.01,4.34-2.1,8.14-5.05,11.78-8.19,5.08-4.39,10.13-8.82,15.23-13.19,3.16-2.71,6.36-5.36,9.58-7.99,13.28-10.87,28.19-18.72,44.62-23.62,9.18-2.74,18.43-5.24,27.7-7.66,9.9-2.59,19.6-5.75,29.21-9.29,8.94-3.3,15.2-9.17,18.96-17.84.25-.59.53-1.16.78-1.75,7.09-16.86,18.08-30.79,31.95-42.56,6.84-5.81,14.13-10.99,21.84-15.59,5.88-3.51,12.18-5.54,19.14-5.19,5.21.26,9.13,2.63,11.87,6.99,1.9,3.01,3.06,6.34,3.63,9.83.71,4.42,1.35,8.85,1.9,13.29,2,16.19,4.15,32.35,7.78,48.26,1.07,4.67,2.27,9.33,3.84,13.84,3.64,10.43,10.35,18.35,20.46,23.01,21.02,9.67,40.08,22.5,58.89,35.84,9,6.39,15.12,14.57,18.59,24.87,1.94,5.75,3.68,11.57,5.4,17.39,1.72,5.82,3.27,11.7,4.99,17.52.45,1.5,1.11,3,2,4.28.43.62,1.69,1.11,2.43.96,1.54-.31,3.04-.97,4.45-1.69,37.5-19.06,77.11-32.39,117.57-43.42,26.2-7.14,52.65-13.32,79.17-19.14,47.12-10.33,94.09-21.29,140.72-33.68,30.57-8.12,61.37-15.33,92.35-21.7,18.47-3.8,37.04-7.1,55.74-9.52,16.48-2.14,33.03-3.76,49.66-4.45,5.75-.24,11.49-.7,17.24-.95,6.39-.29,12.78-.59,19.17-.65,15.35-.15,30.7.02,46.04.91,4.15.24,8.31.42,12.46.42,16.33,0,32.61,1.02,48.85,2.52,37.35,3.46,74.03,10.26,109.53,22.73,16.31,5.73,32.13,12.56,47.2,21.07,13.98,7.89,26.98,17.13,39.01,27.75,14.42,12.73,27.8,26.45,39.62,41.65,13.22,17,24.11,35.37,32.42,55.27,4.72,11.29,7.62,23,9.03,35.16,1.11,9.56,1.73,19.1,1.61,28.71-.18,14.18-2.58,27.98-6.72,41.51-2.35,7.69-5.59,14.98-9.86,21.78-3.75,5.97-7.15,12.11-9.79,18.65-1.57,3.9-3.79,7.37-6.48,10.58-3.7,4.41-7.41,8.82-10.96,13.34-5.18,6.59-11.19,12.31-17.84,17.35-6.88,5.21-14,10.1-20.98,15.17-2.44,1.77-5.12,2.41-8.1,2.4-15.03-.05-30.06-.02-45.09-.02h0v.04h0Z"/>
  <path class="cls-1" d="M1549.64,2009.48c0-62.68.02-125.36-.02-188.04,0-9.91-.07-19.83-.38-29.74-.27-8.63-.97-17.24-1.42-25.86-.13-2.55-.11-5.11-.12-7.66,0-.75,1.12-1.94,1.8-1.91,3.5.2,7.03.24,10.5.69,16.57,2.13,33.18,1.82,49.79.97,3.5-.18,6.96-.98,10.45-1.39,1.57-.18,3.19-.2,4.77-.08.46.04,1.18.81,1.23,1.3.16,1.58.22,3.2.06,4.78-2.43,22.96-1.9,45.99-1.9,69.01,0,103.94-.05,207.87.04,311.81.02,21.76-.83,43.49-2.33,65.18-1.89,27.44-5.1,54.74-11.1,81.64-3.76,16.87-8.51,33.44-15.41,49.33-4.08,9.41-8.9,18.41-14.91,26.75-4.32,5.99-9.17,11.5-14.83,16.26-15.27,12.84-32.82,17.82-52.62,15.58-15.54-1.76-28.69-8.33-40-18.9-7.06-6.6-12.78-14.27-17.77-22.52-7.32-12.1-12.69-25.07-17.12-38.46-5.03-15.2-8.71-30.74-11.51-46.49-4.15-23.31-6.62-46.81-8.25-70.44-1.44-20.76-1.81-41.53-1.82-62.32-.06-99.78-.03-199.56-.02-299.33,0-8.95.05-17.91.1-26.86.1-16-.27-31.97-1.39-47.94-.69-9.81-.33-9.39,8.45-8.19,15.59,2.14,31.21,2.53,46.89,1.85,5.43-.24,10.84-.55,16.2-1.64,2.16-.44,4.43-.38,6.65-.38.48,0,1.12.62,1.4,1.12.28.51.34,1.24.27,1.84-2.86,25.79-3.23,51.68-3.22,77.59.04,104.89.09,209.79.01,314.68-.02,30.71.89,61.4,2.18,92.07.91,21.72,2.58,43.41,5.59,64.96,1.33,9.49,2.88,18.97,5.51,28.21,1.05,3.68,2.25,7.33,3.61,10.91.9,2.37,2.08,4.68,3.38,6.87,5.33,8.98,13.54,8.95,18.5.02,1.24-2.23,2.43-4.53,3.25-6.93,1.45-4.23,2.77-8.51,3.83-12.85,2.82-11.51,4.43-23.24,5.66-35,2.32-22.27,3.55-44.61,4.51-66.98,1.33-31.01,1.5-62.02,1.55-93.04.07-43.49.02-86.99.02-130.48h-.06Z"/>
  <path class="cls-1" d="M1892.47,2061.54c0,79-.01,158,.01,237,0,12.79.11,25.59.28,38.38.18,13.11.4,26.22,1.92,39.27.4,3.48.34,7.01.36,10.52,0,.47-.69,1.17-1.21,1.37-.87.34-1.86.52-2.8.52-9.27.04-18.54,0-27.82.06-3.01.02-4.73-1.37-5.55-4.22-.71-2.45-1.65-4.84-2.44-7.27-36.74-113.05-73.47-226.11-110.21-339.16-.99-3.04-2.04-6.06-3.13-9.06-.3-.81-.4-1.85-1.67-1.99-.79-.09-1.42,1.08-1.45,3.02-.02,1.28,0,2.56,0,3.84.4,43.18.69,86.35,1.25,129.53.44,34.22,1.11,68.44,1.86,102.65.44,20.14,1.04,40.29,1.94,60.41.81,18.21,1.94,36.4,3.71,54.55.16,1.59.21,3.19.27,4.78.05,1.2-1.3,2.29-2.63,2.09-1.89-.28-3.76-.72-5.66-.96-7.29-.9-14.57-2.02-21.89-2.52-9.3-.64-18.49.84-27.63,2.49-1.87.34-3.76.57-5.65.82-.67.09-1.95-1.07-1.95-1.73,0-.96-.08-1.93.03-2.87,2.02-16.85,2.54-33.8,2.95-50.74.21-8.95.17-17.91.17-26.86,0-155.76-.01-311.52.03-467.28,0-21.12-.43-42.21-1.79-63.29-.27-4.14-.83-8.27-1.21-12.41-.15-1.58-.35-3.21-.15-4.76.1-.74,1-1.48,1.7-2.01.46-.34,1.21-.41,1.83-.41,9.91-.02,19.82-.01,29.73,0,1.78,0,3.11.98,3.73,2.53,1.07,2.66,1.9,5.42,2.79,8.16,37.1,114.62,74.19,229.24,111.29,343.85.69,2.12,1.46,4.23,2.33,6.28.13.31,1,.37,1.54.41.14,0,.43-.5.45-.79.14-1.9.34-3.81.33-5.71-.45-57.89-.84-115.78-1.43-173.66-.28-27.5-.86-55-1.53-82.5-.46-18.86-1.07-37.73-2.11-56.57-.63-11.48-1.13-23-2.86-34.41-.24-1.57-.16-3.18-.2-4.78-.02-.7,1.18-1.84,1.89-1.78,2.22.19,4.46.26,6.65.65,14.27,2.54,28.58,3.12,42.96,1.14,3.48-.48,6.92-1.22,10.38-1.82,1.19-.21,2.72.97,2.69,2.08-.06,2.23-.13,4.47-.25,6.7-.43,7.98-1.14,15.95-1.28,23.94-.34,18.55-.55,37.1-.57,55.65-.06,72.28-.03,144.57-.03,216.85l.03.02h0Z"/>
  <path class="cls-1" d="M330.75,2213.47c0,34.23-.02,68.45.02,102.68,0,8.32.18,16.63.34,24.95.04,1.91.17,3.84.57,5.7.16.77,1.03,1.68,1.78,1.95,1.16.41,2.51.46,3.77.44,5.44-.07,10.88-.03,16.3-.38,16.91-1.09,33.83-2.06,50.59-4.71,1.26-.2,2.55-.44,3.81-.37,4.05.23,7.97-2.55,12.09-.54,1.86,3.49,1.6,7.44,2.19,11.17,1.59,10.1,2.8,20.27,4.14,30.41.29,2.19-.94,3.67-3.19,3.77-2.55.12-5.11.16-7.67.16-50.85,0-101.7.01-152.55,0-2.87,0-5.74-.2-8.61-.36-1.15-.06-2.25-1.41-2.19-2.66.25-4.47.53-8.93.82-13.4.4-6.06,1.04-12.12,1.18-18.18.38-16.63.76-33.26.76-49.89.06-154.82.04-309.65,0-464.47,0-13.11-.25-26.23-.47-39.34-.18-10.55-.42-21.11-1.73-31.6-.4-3.17-.48-6.38-.64-9.57-.12-2.41,1-3.75,3.19-3.83,3.19-.12,6.39-.18,9.59-.18,40.3-.01,80.59,0,120.89,0,7.36,0,14.71-.01,22.07,0,1.92,0,3.83.08,5.75.18,1.73.09,3.06,1.54,2.88,3.12-.33,2.86-.67,5.71-1.05,8.57-1.39,10.46-2.8,20.91-4.21,31.37-.04.32-.16.62-.22.93-.23,1.08-1.79,2.25-2.87,2.05-4.72-.85-9.42-1.76-14.14-2.61-14.49-2.61-29.09-4.34-43.77-5.32-5.1-.34-10.22-.31-15.34-.36-2.03-.02-3.41,1.47-3.54,3.7-.16,2.87-.28,5.75-.31,8.63-.12,11.83-.29,23.67-.29,35.5-.03,62.06-.01,124.11-.01,186.17,0,2.56-.02,5.12.04,7.68.1,4.01.96,4.81,5.32,4.92,2.56.06,5.12.04,7.67.04,15.03,0,30.06-.02,45.09.02,2.55,0,5.1.22,7.65.36.57.03,1.65,1.46,1.63,2.1-.04,1.27.05,2.57-.16,3.82-1.86,11.36-3.77,22.71-5.69,34.05-.3,1.8-1.64,2.98-3.23,2.86-3.19-.24-6.38-.48-9.55-.88-13.01-1.64-26.06-2.88-39.17-3.29-1.92-.06-3.84-.1-5.76-.09-2.38,0-3.68,1.13-3.74,3.3-.09,3.2-.11,6.4-.11,9.59v121.87h.04l.03-.03h0Z"/>
  <path class="cls-1" d="M.23,1684.03c.44-6.22.92-12.59,1.33-18.97.43-6.7,1-13.4,1.15-20.1.29-13.11.44-26.22.44-39.33.03-160.22.02-320.45,0-480.67,0-24.31-.15-48.61-2.6-72.83-.16-1.58-.21-3.19-.1-4.78.03-.51.64-1.11,1.14-1.42.52-.32,1.21-.44,1.84-.47,1.91-.09,3.83-.14,5.75-.14h64.27c1.92,0,3.84.05,5.75.14,1.86.09,3.09,1.33,3.01,2.96-.03.64-.06,1.28-.12,1.91-2.24,22.3-2.82,44.67-2.78,67.07.04,23.35,0,46.69,0,70.04v410.63c0,11.19.13,22.39.22,33.58.02,2.88.1,5.76.22,8.63.23,5.18,1.1,6.14,6.33,5.96,14.37-.49,28.75-.92,43.07-2.46,11.12-1.2,22.23-2.45,33.28-4.21.63-.1,1.28-.07,1.91-.1.99-.04,2.57,1.23,2.71,2.28.7,5.39,1.4,10.77,2.04,16.17.8,6.67,1.58,13.33,2.29,20.01.2,1.9.28,3.84.06,5.72-.08.68-1.15,1.71-1.84,1.77-3.17.29-6.37.4-9.56.4-49.56.02-99.12.01-148.68.01-2.24,0-4.48.01-6.71-.05-.95-.03-1.93-.12-2.83-.4-.54-.17-.95-.78-1.61-1.36h.02,0Z"/>
  <path class="cls-1" d="M545.98,2388.72h-72.91c-2.88,0-5.76-.01-8.63-.11-2.9-.1-3.96-1.29-3.66-4.24,2.72-26.78,2.87-53.64,2.87-80.51-.02-156.09,0-312.18-.01-468.27,0-7.04-.11-14.07-.06-21.11.12-19.21-.96-38.36-2.63-57.49-.11-1.27-.16-2.54-.22-3.81-.03-.66,1.05-2.12,1.6-2.18.95-.1,1.91-.26,2.86-.26,23.98-.02,47.97-.01,71.95,0,.96,0,1.91.12,2.87.2,1.1.09,2.24,1.46,2.23,2.68,0,.64.04,1.28,0,1.91-.11,1.92-.17,3.84-.39,5.74-2.19,18.79-2.02,37.67-2.35,56.54-.13,7.35-.1,14.71-.1,22.07,0,153.21-.02,306.43.02,459.64,0,14.07.34,28.14.57,42.21.03,1.9.31,3.81.65,5.69.09.52.74,1.14,1.27,1.33.88.31,1.87.43,2.82.42,4.48-.02,8.97.1,13.43-.22,12.11-.87,24.27-1.13,36.33-2.83,9.49-1.34,19.02-2.44,28.52-3.66,1.9-.24,3.26.56,3.59,2.2.31,1.57.65,3.13.83,4.72,1.4,12.07,2.76,24.14,4.12,36.21.14,1.27-.87,2.6-2.13,2.69-2.86.2-5.73.43-8.59.43-24.94.03-49.89.02-74.83.02h-.02Z"/>
  <path class="cls-1" d="M1246.39,2069.12c0-83.13-.04-166.26.03-249.38.01-18.88-.78-37.71-2.19-56.53-.26-3.49-.58-6.98-.75-10.48-.02-.46.59-1.08,1.06-1.39.5-.33,1.18-.51,1.78-.53,2.55-.09,5.11-.12,7.67-.12,20.14,0,40.28-.01,60.42,0,2.87,0,5.74.15,8.62.25.68.02,1.88,1.25,1.85,1.91-.12,3.18,0,6.4-.41,9.54-1.05,7.95-1.39,15.93-1.55,23.92-.38,19.82-.93,39.64-.94,59.46-.08,151.23-.06,302.46-.01,453.69,0,12.79.39,25.57.63,38.36.05,2.56.19,5.11.36,7.66.16,2.34,1.38,3.59,3.52,3.65,1.92.06,3.84.1,5.75.05,14.7-.36,29.37-1.23,43.98-2.99,10.15-1.22,20.28-2.54,30.42-3.81,1.21-.15,2.49.85,2.7,2.15.51,3.15,1.09,6.3,1.45,9.47,1.16,10.16,2.24,20.33,3.33,30.5.3,2.84-.76,3.97-3.82,4.09-2.23.09-4.47.1-6.71.1h-149.6c-2.55,0-5.11-.06-7.66-.19-2.16-.11-3.22-1.56-2.97-3.94,2.25-21.33,3.06-42.72,3.06-64.15-.02-64.9.02-129.81.03-194.71v-56.59h-.05Z"/>
  <path class="cls-1" d="M736.61,2388.72c-24.31,0-48.61.01-72.92-.01-3.19,0-6.39-.13-9.58-.28-1.65-.08-2.77-1.46-2.67-3.27.17-3.19.43-6.38.66-9.57.44-6.06,1.05-12.11,1.29-18.18.83-20.78,1.17-41.56,1.17-62.36-.03-151.3.03-302.6-.07-453.91-.01-20.47-.69-40.93-1.2-61.4-.14-5.43-.86-10.83-1.23-16.26-.24-3.5-.34-7.01-.48-10.51-.03-.62,1.18-1.96,1.76-2.01,1.27-.1,2.55-.25,3.82-.25,23.35-.02,46.69-.02,70.04.01,1.57,0,3.15.26,4.68.6.46.1.9.82,1.1,1.35.21.57.23,1.26.16,1.88-2.23,21.02-3.11,42.09-3.08,63.22.04,24.31-.03,48.62-.03,72.93,0,135.95-.01,271.9.01,407.84,0,13.11.15,26.23.31,39.34.03,2.87.34,5.73.59,8.6.1,1.2,1.38,2.42,2.52,2.49,1.91.11,3.83.25,5.74.21,15.03-.3,30.03-1.21,44.96-2.98,10.15-1.21,20.29-2.53,30.44-3.79,1.08-.13,2.6,1.02,2.84,2.14.2.94.44,1.87.55,2.82.68,5.71,1.34,11.43,2,17.15.59,5.08,1.2,10.16,1.75,15.25.2,1.9.28,3.82.36,5.74.07,1.65-1.17,2.92-2.99,3-2.87.12-5.75.2-8.62.2-21.75.02-43.49,0-65.24,0h-8.64,0Z"/>
  <path class="cls-1" d="M1913,616.9c.76.23,1.45.25,1.8.6.42.41.69,1.08.78,1.68,2.16,13.9,4.19,27.82,6.46,41.7,3.77,23.03,7.49,46.07,11.61,69.03,2.43,13.56,6.53,26.68,12.14,39.31,15.79,35.53,42.25,59.55,78.58,72.9,10.21,3.75,20.72,6.46,31.45,8.36,25.17,4.47,50.33,8.96,75.46,13.6,9.11,1.68,18.14,3.78,27.19,5.74.41.09.7.69,1.05,1.05-.49.38-.93.94-1.49,1.1-1.53.45-3.08.87-4.66,1.07-29.51,3.66-58.76,8.92-88.01,14.15-12.88,2.31-25.72,4.95-38.14,9.3-16.44,5.76-31.64,13.72-45.06,24.92-17.85,14.9-30.38,33.56-38.91,55.03-4.38,11.02-7.58,22.41-9.73,34.06-4.43,23.89-8.35,47.86-11.94,71.89-1.89,12.64-3.94,25.27-5.91,37.9-.2,1.27-.99,2.13-1.7,1.91-1.06-.34-1.26-1.23-1.39-2.15-3.4-23.73-6.7-47.48-10.23-71.2-2.68-18.03-5.89-35.96-11.07-53.48-3.18-10.75-6.99-21.25-11.84-31.36-12.92-26.96-32.84-46.91-59.8-59.86-14.19-6.81-29.06-11.6-44.32-15.25-14.62-3.49-29.43-5.96-44.32-7.96-11.4-1.53-22.77-3.28-34.16-4.88-6.96-.98-13.94-1.87-20.91-2.78-4.11-.54-8.22-1.02-12.13-2.5-.16-.06-.26-.46-.26-.7,0-.31.05-.73.25-.91.46-.4.99-.89,1.56-.99,5.04-.83,10.09-1.67,15.16-2.35,22.17-2.99,44.31-6.17,66.34-10.08,17.94-3.18,35.71-7.15,52.98-13.09,9.38-3.23,18.51-7.04,27.28-11.69,23.37-12.38,40.82-30.46,52.42-54.24,6.9-14.16,11.64-29.05,15.28-44.33,3.41-14.32,5.73-28.84,7.83-43.39,2.33-16.14,4.67-32.27,6.98-48.41.95-6.65,1.8-13.31,2.72-19.96.17-1.25.43-2.49.66-3.76v.02h0Z"/>
  <path class="cls-1" d="M1426.87,2641.01c0-43.82.04-87.64-.03-131.45-.02-12.15-.33-24.3-.61-36.45-.09-4.15-.5-8.29-.74-12.43-.04-.76,1.06-1.86,1.82-1.9.95-.05,1.91-.18,2.85-.12,3.51.23,7.02.45,10.52.83,9.9,1.07,19.78,1.09,29.67-.19,2.53-.33,5.09-.37,7.64-.51,1.21-.07,2.35,1.14,2.33,2.43-.02,1.6.03,3.2-.14,4.79-1.51,14.03-1.29,28.1-1.29,42.18.02,71.96.05,143.93.04,215.89,0,8.63-.14,17.27-.31,25.9-.44,22.41-2.47,44.7-6.12,66.81-2.4,14.52-5.77,28.83-11.08,42.61-2.53,6.58-5.47,12.95-9.1,19-3.48,5.79-7.54,11.12-12.54,15.67-8.86,8.07-19.19,12.3-31.29,12.51-14.26.25-26.21-4.76-36.22-14.73-5.95-5.93-10.53-12.84-14.38-20.26-5.03-9.69-8.67-19.93-11.53-30.43-3.79-13.9-6.25-28.05-8.11-42.34-3.2-24.48-4.08-49.06-4.07-73.7.01-75.16.06-150.32.1-225.48,0-11.19.04-22.39-.99-33.56-.12-1.27-.15-2.55-.19-3.83-.07-2.39,1.14-3.78,3.27-3.63,3.51.25,7.02.48,10.51.91,10.53,1.28,21.04,1.38,31.56-.09,2.83-.4,5.72-.44,8.59-.5.43,0,1.03.73,1.28,1.25.26.54.3,1.24.28,1.86-.06,1.92-.12,3.84-.3,5.75-1.74,18.82-1.61,37.7-1.61,56.57.02,72.28.06,144.57.04,216.85,0,22.08.91,44.13,2.03,66.17.81,15.95,2.09,31.92,5.33,47.62,1.03,4.99,2.4,9.94,3.92,14.81.75,2.4,2.04,4.69,3.39,6.83.82,1.3,2.15,2.32,3.4,3.29,1.54,1.2,3.95,1.21,5.34-.05,1.4-1.27,2.89-2.61,3.78-4.23,1.36-2.5,2.51-5.2,3.27-7.94,1.36-4.92,2.68-9.89,3.46-14.93,2.06-13.27,3.31-26.64,4.17-40.05,1.99-31.3,2.06-62.65,2.05-93.99v-77.74h0Z"/>
  <path class="cls-1" d="M1927.91,2648.3c0,2.93-.03,5.8,0,8.66.26,19.51.53,39.01.8,58.52.25,17.91.63,35.81.7,53.72.12,30.39,1.34,60.75,2.36,91.11.4,11.81,1.65,23.6,2.51,35.4.14,1.9-1.03,3.19-2.76,3.07-.64-.05-1.27-.11-1.91-.19-1.27-.15-2.55-.23-3.81-.48-10.18-2.03-20.33-1.89-30.49.16-1.55.31-3.17.4-4.76.39-.47,0-1.26-.65-1.34-1.1-.21-1.24-.25-2.54-.13-3.8,2.28-23.61,1.79-47.28,1.8-70.94.02-102.34-.02-204.68.03-307.02,0-16.96-.38-33.89-1.75-50.8-.55-6.8-.1-7.36,6.47-7.23,22.76.47,16.96-4.17,23.92,17.11,24.54,75.01,48.69,150.15,73,225.23.79,2.43,1.68,4.82,2.58,7.21.07.18.62.38.76.29.45-.29,1.13-.68,1.17-1.08.18-1.9.23-3.83.22-5.74-.33-43.17-.53-86.35-1.06-129.52-.3-24.3-.98-48.6-1.82-72.89-.44-12.77-1.62-25.51-2.48-38.51.67-.32,1.49-1.05,2.31-1.04,2.22.02,4.47.21,6.66.59,9.87,1.74,19.7,1.8,29.55-.2,1.53-.31,3.17-.24,4.75-.14.46.03,1.18.76,1.23,1.23.19,1.57.31,3.18.16,4.75-1.61,16.91-1.4,33.86-1.4,50.81-.01,108.1,0,216.19,0,324.29,0,16.63-.14,33.26,1.59,49.84.17,1.59.24,3.19.3,4.79.13,3.72-.31,5.17-4.85,5.14-6.38-.04-12.77.23-18.74-.18-2.34-1.72-2.82-3.93-3.51-6.05-5.04-15.5-10.11-30.99-15.15-46.48-21.06-64.72-42.12-129.44-63.19-194.15-.49-1.5-1.15-2.95-1.9-4.33-.17-.31-1.02-.25-1.84-.42l.02-.02h0Z"/>
  <path class="cls-1" d="M864.32,2868.48c.55,2.8,1.15,5.29,1.52,7.81.79,5.37,1.49,10.76,2.17,16.15.2,1.58.19,3.18.25,4.78.04,1.08-1.3,2.45-2.45,2.51-1.91.09-3.83.21-5.74.21-34.84.01-69.68.01-104.52,0-1.91,0-3.83-.11-5.74-.22-1.25-.07-2.51-1.28-2.52-2.43-.01-1.91-.08-3.83.1-5.73,1.93-21.05,1.7-42.15,1.69-63.25-.01-102.94,0-205.89,0-308.83,0-16.63.08-33.25-1.49-49.83-.24-2.54-.34-5.1-.44-7.66-.11-2.85,1.03-4.06,3.92-4.18,1.92-.08,3.83-.09,5.75-.09,31.96,0,63.93.03,95.89-.02,9.54-.01,9.19.25,8.06,8.96-.86,6.65-1.73,13.31-2.64,19.95-.3,2.21-1.79,3.33-4.07,2.98-5.68-.89-11.31-2.09-17.02-2.76-9.2-1.08-18.43-1.86-27.65-2.68-1.57-.14-3.22-.05-4.74.31-.75.18-1.69,1.14-1.85,1.89-.46,2.17-.73,4.41-.79,6.63-.2,7.35-.39,14.7-.4,22.05-.04,43.8-.02,87.6-.02,131.4,0,1.92,0,3.84.09,5.75.12,2.77,1.32,4,4.2,4.01,10.23.07,20.46.05,30.68.09,3.19.01,6.39.04,9.58.2.87.05,1.71.63,2.49.94.09.82.31,1.47.21,2.08-1.32,8.2-2.67,16.39-4.04,24.58-.27,1.59-1.82,2.58-3.59,2.35-10.46-1.34-20.94-2.54-31.49-2.91-8.05-.28-8.12-.23-8.13,7.67-.03,38.36-.02,76.73-.01,115.09,0,15.35-.02,30.69.1,46.04.04,5.43.42,10.86.75,16.28.14,2.26,1.38,3.32,3.85,3.26,8.31-.18,16.63-.18,24.91-.77,7.96-.57,15.86-1.81,23.8-2.73,2.22-.26,4.44-.47,6.67-.6.59-.03,1.19.3,2.64.7l.02.02h0Z"/>
  <path class="cls-1" d="M992.61,2461.34c.61,21.19-.97,41.28-1.59,61.4,0,.26-.19.63-.4.76-.7.42-1.25.23-1.58-.44-1.15-2.28-2.29-4.56-3.44-6.83-4.8-9.51-10.92-18.03-18.81-25.23-3.32-3.03-6.92-5.63-10.98-7.63-2.65-1.31-5.4-1.95-8.3-2.05-4.17-.14-7.4,1.59-9.74,5.04-2.01,2.96-3.26,6.28-3.88,9.73-.9,5.02-1.85,10.11-1.98,15.19-.26,10.22-.47,20.49.18,30.68,1.31,20.5,5.25,40.53,12.04,59.97,3.9,11.18,8.42,22.1,13.49,32.78s10.28,21.3,15.4,31.95c6.38,13.25,12.31,26.69,17.09,40.62,9.77,28.48,13.73,57.78,12.07,87.79-.94,16.96-3.51,33.68-9.08,49.84-3.56,10.33-8.14,20.14-14.33,29.16-5.1,7.43-11.08,14.06-18.21,19.6-14.83,11.52-31.6,16.44-50.28,14.33-11.29-1.28-20.61-6.49-27.96-15.14-.78-.92-1.08-2.27-1.48-3.46-.19-.58-.13-1.27-.12-1.9.48-20.14.98-40.28,1.48-60.42.02-.63.14-1.27.33-1.87.06-.19.47-.34.74-.37.28-.03.72,0,.85.18.55.74,1.13,1.5,1.48,2.34,3.36,7.96,7.02,15.76,11.53,23.15,3.67,6.03,7.78,11.72,12.81,16.7,3.43,3.39,7.19,6.3,11.6,8.37,2.66,1.25,5.41,1.82,8.32,2.01,5.64.36,9.98-1.97,13.09-6.48,1.61-2.34,3.06-4.92,3.99-7.6,1.46-4.21,2.71-8.55,3.49-12.93.95-5.34,1.61-10.77,1.9-16.18,1.02-18.56.66-37.1-1.92-55.52-2.81-20.03-8.09-39.41-15.84-58.11-4.16-10.05-8.89-19.82-13.87-29.48-6.74-13.07-13.26-26.24-18.87-39.85-6.84-16.59-12.28-33.61-15.4-51.31-4.04-22.86-4.55-45.8-.48-68.7,2.36-13.27,6.52-26.02,12.87-37.99,4.68-8.82,10.35-16.9,17.55-23.84,8.92-8.61,19.19-14.95,31.46-17.38,16.08-3.19,31.07-.57,44.78,9.13h0Z"/>
  <path class="cls-1" d="M1009.06,2488.21c1.19-9.02,2.35-17.89,3.54-26.75.29-2.16,1.71-3.5,3.8-3.59,2.55-.11,5.11-.14,7.67-.14,41.57,0,83.14-.01,124.7,0,2.55,0,5.11.12,7.66.24,1.03.04,2.52,1.61,2.45,2.56-.71,8.92-1.06,17.88-2.62,26.72-.31,1.77-1.55,2.47-3.55,1.95-.93-.24-1.82-.59-2.75-.83-10.57-2.77-21.37-3.81-32.25-4.23-1.27-.05-2.62-.05-3.79.34-.74.25-1.43,1.18-1.76,1.97-.36.84-.36,1.87-.38,2.82-.05,3.2-.04,6.4-.04,9.59v336.77c0,9.91.07,19.83.17,29.74.09,8.96.3,17.91,1.51,26.8.21,1.57.14,3.18.17,4.78.02.93-.91,1.95-1.76,1.88-3.82-.31-7.65-.53-11.45-1.01-10.21-1.3-20.4-1.34-30.6.04-2.85.39-5.72.62-8.59.87-2.92.26-3.85-.73-3.64-3.98,1.05-15.97,1.15-31.96,1.15-47.95.02-116.42.01-232.83,0-349.25,0-3.51-.1-7.03-.24-10.54-.06-1.63-1.46-2.85-3.21-2.83-2.56.02-5.12-.01-7.66.24-11.13,1.11-22.29,2-33.18,4.75-.92.23-1.93.4-2.84.25-.85-.14-1.63-.76-2.56-1.22h.05Z"/>
  <path class="cls-1" d="M2109.85,2691.88v-193.86c0-3.2.01-6.4-.07-9.6-.08-3.33-1.24-4.37-4.83-4.29-2.56.05-5.12.15-7.66.39-10.82,1.06-21.64,2.08-32.23,4.7-.91.22-1.9.12-2.85.2-.72.07-1.92-1.02-1.93-1.74,0-.64-.12-1.29-.04-1.91,1.15-8.23,2.31-16.46,3.52-24.68.33-2.25,1.5-3.16,3.96-3.26,2.24-.1,4.48-.12,6.71-.12h124.73c11.9,0,11.05-.43,10.17,11-.39,5.1-1.1,10.17-1.54,15.27-.43,4.89-.87,6.23-6.42,4.61-10.81-3.17-21.97-4.05-33.17-4.46-1.25-.05-2.55.16-3.77.47-.5.13-1.1.75-1.25,1.27-.36,1.2-.62,2.47-.65,3.73-.09,3.2-.05,6.4-.05,9.6,0,112.6-.01,225.2,0,337.81,0,19.52.34,39.02,2.01,58.48.03.32-.03.64-.02.96.04,1.22-1.16,2.44-2.44,2.34-3.82-.31-7.65-.57-11.45-1.04-9.57-1.18-19.13-1.26-28.7,0-1.9.25-3.82.4-5.73.6-8.05.85-8.45,1.54-7.66-6.89,1.31-14.04,1.33-28.11,1.33-42.19.02-52.46,0-104.92,0-157.39h.03,0Z"/>
  <path class="cls-1" d="M1864.91,540.46c.66-1.78,2.28-2.13,3.83-2.4,5.03-.89,10.09-1.63,15.13-2.51,17.94-3.14,35.88-6.27,53.81-9.48,8.52-1.53,16.73-4.16,24.69-7.56,23.51-10.05,40.02-26.97,49.74-50.6,3.3-8.02,5.68-16.32,7.23-24.81,2.87-15.72,5.43-31.5,8.13-47.25,1.3-7.56,2.61-15.12,3.95-22.67.09-.52.54-.97.83-1.47,1.93,1.57,2.04,3.9,2.41,6.05,2.08,11.97,4.04,23.95,6.13,35.92,1.98,11.33,3.93,22.68,6.16,33.97,1.67,8.48,4.22,16.74,7.8,24.63,8.94,19.69,23.17,34.26,42.53,43.85,8.93,4.42,18.31,7.64,28.04,9.59,14.41,2.88,28.9,5.34,43.38,7.89,8.81,1.55,17.65,2.93,26.46,4.46.42.07.99.83,1.01,1.29.02.46-.46,1.18-.91,1.37-.86.37-1.85.47-2.78.65-16.3,3.2-32.63,6.27-48.9,9.64-10.63,2.21-21.17,4.84-31.74,7.33-2.17.51-4.31,1.18-6.43,1.88-26.88,8.84-44.53,26.94-52.83,53.85-3.29,10.66-5.57,21.67-7.86,32.61-3.47,16.58-6.55,33.24-9.8,49.86-.55,2.79-.89,5.65-2.74,8.26-1.76-2.59-1.95-5.46-2.43-8.16-3.38-19.2-6.65-38.43-9.96-57.64-1.3-7.58-3.18-15-5.74-22.25-10.77-30.52-31.75-50.35-62.58-59.91-8.57-2.66-17.41-4.13-26.21-5.68-19.51-3.43-39.06-6.65-58.58-9.98-.6-.1-1.17-.45-1.76-.68v-.05h-.01Z"/>
  <path class="cls-1" d="M1588.99,630.33c9.43-1.53,18.88-2.99,28.3-4.6,11.33-1.94,22.61-4.12,33.64-7.43,5.51-1.66,10.92-3.59,16.11-6.07,12.5-5.97,22.1-14.99,28.76-27.17,3.85-7.05,6.72-14.48,9.06-22.12,3.36-11.01,5.75-22.26,7.66-33.6,1.59-9.44,2.86-18.94,4.31-28.42.09-.61.42-1.18.64-1.77,1.52.03,2.29.94,2.53,2.31,1.44,8.18,2.92,16.35,4.24,24.54,1.68,10.4,3.07,20.86,5.73,31.07,1.21,4.63,2.54,9.25,4.23,13.72,7.09,18.78,19.77,32.57,37.64,41.63,8.89,4.51,18.32,7.5,28.06,9.4,8.45,1.65,17.01,2.74,25.51,4.15,9.12,1.52,18.38,2.13,27.35,4.37.24,1.67-.82,2.31-2.04,2.54-4.39.81-8.8,1.58-13.22,2.24-9.47,1.41-18.97,2.64-28.44,4.11-10.11,1.58-20.04,3.94-29.59,7.7-7.47,2.94-14.43,6.79-20.8,11.7-10.35,7.99-17.94,18.08-23.08,30.07-3.29,7.67-5.57,15.66-7.18,23.8-1.66,8.46-2.81,17.01-4.28,25.51-1.41,8.18-2.93,16.34-4.49,24.49-.08.42-.92.92-1.43.94-.39.02-.86-.61-1.2-1.02-.18-.22-.15-.61-.19-.93-1.53-12.69-3.69-25.28-6.14-37.82-1.9-9.72-4.24-19.33-7.42-28.73-2.16-6.37-4.74-12.54-8.04-18.41-6.46-11.48-15.57-20.12-27.43-25.9-6.63-3.23-13.56-5.62-20.65-7.54-12.65-3.42-25.56-5.61-38.48-7.69-5.67-.91-11.37-1.69-17.04-2.6-1.25-.2-2.4-.76-2.62-2.48h-.01Z"/>
  <path class="cls-1" d="M210.22,2196.78c-1.01-16.66-3.61-33.05-8.2-49.09-4.24-14.83-10.3-28.89-19.05-41.69-13.25-19.39-30.96-32.93-53.16-40.59-2.68-.93-5.37-1.81-8-2.7h0c.19-2.22,1.79-2.65,3.23-3.33,15.69-7.4,28.21-18.58,38.47-32.43,5.54-7.48,10.19-15.48,14.24-23.85,7.99-16.51,13.23-33.92,16.89-51.83,2.5-12.23,3.91-24.62,4.88-37.06,1.85-23.76.56-47.3-4.93-70.53-3.56-15.03-9.1-29.29-17.32-42.43-14.27-22.82-34.06-38.71-59.69-47.14-19.1-6.28-38.71-8.11-58.69-6.56-4.46.34-8.93.69-13.38,1.14-11.78,1.2-23.43,3.21-34.87,6.29-3.06.83-6.03,2.09-8.95,3.35-.72.31-1.33,1.35-1.56,2.18-.25.88-.02,1.9.07,2.85,1.81,18.16,2.86,36.35,2.79,54.6-.03,7.36.07,14.71.07,22.07,0,155.14,0,310.27,0,465.41,0,12.47-.08,24.95-.35,37.42-.15,7.03-.69,14.05-1.17,21.07-.41,6.07-1,12.11-1.5,18.17-.19,2.3.54,3.42,2.84,4.38,1.18.48,2.36.96,3.57,1.37,8.22,2.75,16.72,4.24,25.25,5.53,13.95,2.11,28.02,2.49,42.1,2.42,8.33-.04,16.58-.57,24.82-2,29.22-5.06,53.45-18.71,72.4-41.56,10.3-12.42,17.99-26.38,23.92-41.34,8.68-21.89,13.26-44.7,15.08-68.09,1.19-15.33,1.14-30.68.21-46.03h0ZM75.26,1792.72c0-3.19.15-6.39.26-9.58.04-1.07,1.53-2.24,2.67-2.26,6.31-.12,11.93,1.55,17,4.69.08.05.16.1.24.15.34.21.68.43,1.01.66.13.09.27.19.4.28.28.2.56.39.83.59.07.05.14.11.2.16.74.56,1.47,1.14,2.18,1.76.55.48,1.09.97,1.6,1.48,3.62,3.52,6.46,7.66,8.87,12.14.73,1.35,1.4,2.71,2.04,4.09,1.26,2.71,2.35,5.48,3.32,8.3.72,2.08,1.37,4.18,1.97,6.31,2.92,10.49,4.76,21.19,5.93,32.01,2.97,27.41,3.15,54.9,1.69,82.38-1.16,21.76-4.37,43.23-11.25,64.02-3.43,10.37-7.82,20.27-13.92,29.36-5.22,7.77-11.48,14.55-19.44,19.61-1.06.68-2.25,1.23-3.45,1.6-.36.11-1.01-.25-1.39-.63-.06-.06-.11-.11-.15-.17-.36-.47-.49-1.19-.51-1.8-.08-2.88-.11-5.75-.11-8.63v-122.78h-.01c0-41.26-.01-82.5.01-123.75h0ZM133.16,2239.35c-.71,19.83-3.07,39.49-7.65,58.83-2.29,9.65-5.21,19.1-9.21,28.2-2.58,5.87-5.54,11.51-9.22,16.77-.04.06-.09.12-.13.18-2.79,3.96-5.98,7.55-9.66,10.69-.17.14-.33.3-.5.45-.21.18-.43.33-.65.5-5.09,4.04-10.84,6.59-17.34,7.44-.06,0-.12.02-.18.03-.44.06-.86.03-1.23-.06-.07-.02-.12-.05-.19-.07-.11-.04-.23-.07-.34-.12-.83-.41-1.36-1.24-1.4-2.39h0v-.29c-.11-2.99-.19-5.99-.2-8.99v-.29h0v-125.61h0c0-41.24-.01-82.47,0-123.7h0c0-3.19.08-6.39.2-9.58v-.05c.09-1.68,1.27-2.55,2.89-2.34.12.02.24.02.37.05,12.69,2.78,22.92,9.43,30.86,19.65,5.34,6.88,9.18,14.57,12.23,22.69.04.1.07.2.11.3,3.15,8.43,5.36,17.13,6.93,25.96.14.81.29,1.62.42,2.44,2.53,15.47,4.05,31.05,4.09,46.75.02,5.44.06,10.87.06,16.3s-.06,10.87-.26,16.3v-.04Z"/>
  <path class="cls-1" d="M454.64,1679.32c-4.44-9.91-9.04-19.75-13.26-29.76-4.47-10.62-7.98-21.61-10.17-32.92-4.13-21.33-7.97-42.71-11.92-64.08-3.48-18.85-6.94-37.71-10.44-56.56-3.55-19.16-7.14-38.32-10.71-57.48-3.56-19.17-7.13-38.33-10.69-57.49-3.5-18.85-6.98-37.7-10.47-56.55-3.49-18.85-6.99-37.7-10.49-56.55-4.19-22.62-8.39-45.24-12.58-67.86-4.07-22-8.14-43.99-12.22-65.98-4.26-22.93-8.43-45.88-12.84-68.78-1.21-6.24-1.61-12.69-4.14-18.97l-.03.02c-1.09-.29-2.29-.87-3.5-.89-5.75-.1-11.51-.06-17.26-.05-.63,0-1.35-.04-1.88.24-.81.42-1.78.96-2.14,1.71-.68,1.41-1.11,2.98-1.41,4.53-2.29,11.92-4.5,23.86-6.77,35.79-4.18,21.97-8.39,43.94-12.57,65.91-4.12,21.66-8.2,43.32-12.32,64.98-4.23,22.28-8.49,44.57-12.74,66.85-4.14,21.66-8.28,43.31-12.4,64.97-4.18,21.97-8.34,43.95-12.52,65.92-4.12,21.66-8.26,43.31-12.38,64.97-4.18,21.98-8.36,43.95-12.54,65.92-4.12,21.65-8.22,43.31-12.36,64.97-4.07,21.34-8.2,42.67-12.25,64.02-.47,2.5-.69,5.06-.87,7.6-.03.38.81,1.17,1.25,1.17,1.58.01,3.18-.1,4.73-.4,8.82-1.68,17.71-2.79,26.68-2.15,7,.49,14.05.75,20.93,2.43,1.23.3,2.53.31,3.8.43,1.73.16,3.18-.81,3.46-2.52.63-3.78,1.16-7.58,1.72-11.37,2.3-15.49,4.63-30.97,6.88-46.47,2.2-15.18,4.28-30.38,6.47-45.56.45-3.16,1.04-6.31,1.8-9.41.17-.71,1.2-1.48,1.99-1.72,1.19-.37,2.52-.4,3.79-.4,26.21-.02,52.43-.02,78.64,0,1.27,0,2.6,0,3.78.38.79.26,1.6,1.06,1.97,1.83.55,1.12.85,2.41,1.03,3.66.87,6,1.64,12.03,2.49,18.04,1.52,10.76,2.86,21.55,4.65,32.26,1.53,9.15,2.97,18.28,3.79,27.53.71,7.99.86,15.95-.01,23.93-.24,2.22-.4,4.46-.53,6.69-.13,2.28,1.21,3.35,3.69,3,1.58-.22,3.14-.6,4.72-.79,7.93-.94,15.84-2.26,23.8-2.66,20.16-1.02,40.26-.31,60.2,3.18,1.85.32,3.79.82,5.63-.2.47-2.06-.71-3.65-1.48-5.36h0ZM340.04,1527.13h0c-1.13.5-1.95,1.1-2.84,1.21-1.89.23-3.82.26-5.73.26-20.14.02-40.28.02-60.42,0-1.91,0-3.83-.08-5.74-.2-1.81-.11-3.1-1.47-2.89-3.02.66-5.07,1.32-10.14,2.02-15.2,1.76-12.66,3.53-25.32,5.33-37.97,2.25-15.82,4.55-31.63,6.78-47.45,1.6-11.39,3.08-22.8,4.68-34.19,1.59-11.39,3.28-22.77,4.88-34.16.07-.47.13-.94.19-1.41,1.42-10.14,2.78-20.29,4.2-30.43.07-.47.13-.94.19-1.4,0-.06.02-.12.03-.18,2.65-18.85,5.36-37.71,8.06-56.56,0-.06.02-.12.03-.18.04-.27.24-.51.39-.76.01-.02.03-.05.04-.07.02,0,.03.02.05.03,1.7.68,2.05,2.23,2.29,3.76v.05c.84,5.37,1.59,10.75,2.4,16.12,2.37,15.79,4.78,31.59,7.13,47.39,2.21,14.85,4.35,29.72,6.57,44.57,2.23,14.85,4.54,29.69,6.78,44.54.03.18.05.36.08.55,2.13,14.17,4.21,28.35,6.33,42.52.03.18.05.36.08.55,2.28,15.17,4.59,30.33,6.85,45.5,0,.03,0,.06.01.08.79,5.3,1.47,10.62,2.21,15.97,0,.03,0,.06.01.08h.01Z"/>
  <g>
    <path class="cls-1" d="M1105.24,2387.38l.03-.03h-.03v.02h0Z"/>
    <path class="cls-1" d="M1103.69,2381.97c-3.92-8.75-8.08-17.39-11.84-26.21-5.27-12.38-9.32-25.17-11.92-38.39-1.55-7.83-2.89-15.71-4.34-23.57-3.47-18.86-6.94-37.72-10.44-56.57-3.56-19.17-7.15-38.33-10.72-57.5s-7.14-38.33-10.7-57.5c-3.45-18.54-6.9-37.08-10.33-55.62-4.13-22.32-8.22-44.64-12.35-66.95-4.25-22.94-8.53-45.87-12.8-68.81-3.51-18.85-7.05-37.7-10.55-56.55-3.5-18.85-6.97-37.71-10.48-56.56-3.62-19.48-7.37-38.94-10.88-58.44-1.64-9.12-1.3-8.55-10.22-8.57-4.16-.01-8.31-.02-12.47.05-3.14.05-4.14.81-4.69,3.61-1.6,8.15-3.13,16.32-4.69,24.48-4.25,22.29-8.5,44.58-12.75,66.87-4.13,21.66-8.26,43.32-12.39,64.98s-8.27,43.32-12.39,64.98c-4.18,21.98-8.34,43.96-12.52,65.94-4.18,21.98-8.36,43.95-12.55,65.93-4.19,21.97-8.41,43.94-12.59,65.92-4.12,21.66-8.22,43.33-12.33,64.99-4.11,21.66-8.2,43.33-12.34,64.99-4.74,24.8-9.52,49.59-14.25,74.39-.53,2.82-.89,5.68-1.18,8.53-.04.38.78,1.19,1.22,1.21,1.58.07,3.21.08,4.75-.23,14.93-3.05,29.86-2.72,44.81-.24,2.51.42,5.07.61,7.61.71.92.04,1.82-.63,2.02-1.67.66-3.45,1.34-6.9,1.86-10.37.95-6.32,1.77-12.66,2.69-18.99,2.34-16.13,4.71-32.26,7.05-48.39,1.47-10.12,2.87-20.26,4.39-30.37.33-2.18,1.07-4.3,1.57-6.27,3.02-1.41,5.94-.92,8.78-.92,22.06-.05,44.13-.14,66.19,0,18.16.11,13.18-2.35,16.58,14.36.06.31.06.63.11.95,2.37,16.45,4.43,32.94,7.31,49.32,1.94,11.04,3.03,22.18,2.64,33.42-.16,4.48-.37,8.95-.55,13.42-.05,1.28-.08,2.55-.1,3.83-.01.63,1.31,1.7,2.04,1.64,1.9-.16,3.82-.23,5.7-.55,11.36-1.94,22.8-3.06,34.33-3.24,16.02-.25,31.94.83,47.77,3.34,2.47.39,5.01,1.1,7.49,0,.48-2.09-.8-3.7-1.55-5.39h0ZM988.93,2231.28c-.83.28-1.7.78-2.6.84-.45.03-.89.03-1.34.05-.24.01-.49.02-.73.03-1.55.05-3.09.07-4.64.07-19.18.02-38.37.02-57.56,0-2.55-.01-5.11-.16-7.66-.26-.62-.03-1.76-1.35-1.76-1.99s-.03-1.28-.04-1.92c0-.64,0-1.28.09-1.91,1.43-10.45,2.91-20.9,4.38-31.34,1.69-12.03,3.37-24.06,5.07-36.09,1.61-11.39,3.26-22.78,4.86-34.18,1.56-11.08,3.07-22.17,4.62-33.25,1.64-11.71,3.3-23.42,4.95-35.14,1.51-10.76,3.02-21.53,4.53-32.29,1.73-12.35,3.46-24.69,5.21-37.04.67-4.75,1.36-9.49,2.1-14.23.18-1.17.33-2.44,1.89-3.23.64,3.19,1.39,6.28,1.86,9.41,2.19,14.54,4.28,29.1,6.45,43.64,2.22,14.86,4.51,29.71,6.74,44.56,2.19,14.54,4.35,29.09,6.53,43.63,2.33,15.49,4.67,30.98,7,46.46,2.14,14.23,4.25,28.45,6.38,42.68,1.09,7.27,2.22,14.53,3.29,21.81.29,1.97.7,3.94.76,5.97.04,1.21-.06,2.44-.38,3.7v.02h0Z"/>
  </g>
  <path class="cls-1" d="M2201.2,2385.92c-1.17-2.63-2.37-5.24-3.55-7.86-3.41-7.58-7-15.08-10.19-22.75-5.41-13.01-9.62-26.41-12.15-40.31-1.71-9.44-3.52-18.85-5.27-28.28-4.02-21.68-8.04-43.36-12.04-65.05-4.12-22.32-8.21-44.64-12.35-66.95-4.14-22.31-8.37-44.6-12.51-66.91-4.13-22.31-8.16-44.64-12.31-66.95-4.79-25.77-9.7-51.51-14.48-77.28-5.43-29.23-10.74-58.47-16.14-87.7-4.99-27.03-10.03-54.05-15.06-81.07-1.29-6.92-2.6-13.82-3.93-20.73-.41-2.12-1.77-3.29-4.01-3.31-6.07-.05-12.15-.08-18.22.02-1.19.02-2.38.64-3.78,1.04-39.63,208.01-79.22,415.83-118.8,623.65-.6,3.14-1.14,6.3-1.65,9.45-.09.6.06,1.23.1,1.84v.02c.98,1.04,2.22,1.17,3.51.96,3.46-.57,6.9-1.36,10.39-1.73,12.46-1.3,24.89-1.1,37.25,1.21,2.19.41,4.44.51,6.66.7,1.23.1,2.36-.86,2.66-2.2.42-1.87.9-3.74,1.17-5.63,2.15-14.87,4.24-29.75,6.39-44.62,2.24-15.51,4.51-31,6.78-46.5.7-4.74,1.36-9.49,2.19-14.21.56-3.16,1.39-3.79,4.38-3.89,1.28-.04,2.56-.04,3.84-.04,24.63-.01,49.25-.01,73.87,0,1.91,0,3.83.11,5.74.22,1.25.07,2.46,1.11,2.65,2.33,1.35,8.84,2.68,17.69,4.02,26.54,1.77,11.7,3.55,23.39,5.3,35.08,1.61,10.76,3.06,21.54,2.7,32.46-.18,5.43-.46,10.86-.66,16.29-.03.94-.05,1.93.21,2.81.14.48.89,1.11,1.35,1.1,2.21-.06,4.45-.15,6.64-.51,10.42-1.7,20.89-2.86,31.46-3.1,16.67-.38,33.23.65,49.7,3.23,2.2.35,4.44.4,6.67.56.88.07,1.81-1.17,1.47-1.93h0ZM2082.22,2232.13c-1.28.06-2.55.12-3.83.13-21.11,0-42.21.02-63.32-.01-2.19,0-4.5.39-6.53-1.29h-.01v-.02c-.01-1.8-.22-3.73.03-5.6,1.35-10.14,2.82-20.26,4.25-30.39,1.69-12.03,3.37-24.06,5.07-36.09,1.61-11.39,3.25-22.78,4.85-34.18,1.56-11.08,3.08-22.17,4.63-33.25,1.64-11.72,3.3-23.43,4.94-35.14,1.55-11.08,3.08-22.16,4.64-33.24,1.69-12.03,3.39-24.05,5.1-36.08.68-4.75,1.36-9.49,2.09-14.23.19-1.23.42-2.49,1.88-3.49v.02h0c.65,3.24,1.4,6.33,1.87,9.45,2.19,14.54,4.28,29.1,6.46,43.64,2.22,14.86,4.5,29.71,6.74,44.57,1.57,10.43,3.11,20.87,4.67,31.3,2.28,15.17,4.56,30.35,6.85,45.52,2.14,14.22,4.29,28.45,6.43,42.67,1.76,11.7,3.53,23.39,5.26,35.09.37,2.53.59,5.08.81,7.63.14,1.7-1.06,2.91-2.89,3h.01Z"/>
  <path class="cls-1" d="M713.84,2896.72c-2.68-8.23-4.79-16.58-5.58-25.22-.52-5.73-1.19-11.46-1.26-17.2-.28-24.29-.41-48.59-.47-72.89-.02-8.01-.38-15.97-1.14-23.94-.92-9.61-3.14-18.91-6.42-27.95-2.18-6.02-5.06-11.73-8.74-17.01-6.22-8.91-14.25-15.46-24.65-18.92-1.45-.48-2.92-.9-4.31-1.32.17-2.27,1.83-2.79,3.15-3.61,10.25-6.38,18.19-15.01,24.58-25.16,3.24-5.15,6.01-10.55,8.38-16.15,4.25-10.04,7.43-20.42,9.64-31.08,4.51-21.7,6.27-43.65,5.54-65.78-.33-9.92-1.63-19.76-3.81-29.44-2.41-10.65-6.11-20.85-11.75-30.26-8.66-14.46-20.79-24.95-36.29-31.52-6.5-2.76-13.27-4.7-20.21-5.87-21.4-3.62-42.69-2.22-63.84,2.05-3.71.75-7.27,2.37-10.86,3.68-1.49.54-2.4,2.18-2.26,3.84.47,5.73,1.2,11.45,1.42,17.19.37,9.58.57,19.18.57,28.77.04,113.5.04,227.01,0,340.52-.01,9.59-.2,19.19-.55,28.77-.22,6.06-.91,12.11-1.37,18.16-.1,1.34,1.03,2.56,2.27,2.45,3.49-.33,7-.58,10.48-1.05,9.57-1.28,19.12-1.22,28.69-.07,4.75.57,9.52.92,13.82,1.33v.03c1.67-1.1,1.74-2.38,1.64-3.67-.5-6.38-1.21-12.74-1.48-19.12-.33-7.67-.4-15.35-.4-23.02-.05-44.44-.05-88.89-.06-133.33,0-1.91.01-3.83.06-5.75.02-.63.15-1.27.23-1.9.09-.72,1.24-1.71,2-1.71,9.31,0,16.58,4.06,22.17,11.3,2.96,3.83,4.97,8.19,6.4,12.8,2.08,6.73,3.61,13.6,3.96,20.66.34,7.02.67,14.05.7,21.08.11,22.06-.08,44.12.15,66.18.16,15.34.53,30.7,2.98,45.9.46,2.83,1.1,5.64,1.72,8.44.29,1.34,1.49,2.14,2.81,2,3.82-.4,7.64-.77,11.44-1.25,9.56-1.21,19.12-1.26,28.68.05,2.85.39,5.72.66,8.58.96.63.06,1.27.03,1.91.05.81.02,1.75-1.2,1.48-2.02ZM656.02,2600.03c-.69,9.89-1.14,19.78-2.57,29.61-1.34,9.19-3.05,18.28-5.89,27.13-1.96,6.11-4.47,11.97-8.21,17.24-3.62,5.1-8.22,8.92-14.28,10.76-1.84.56-3.73.84-5.73-.07v.02c-.21-.82-.61-1.73-.65-2.65-.12-2.55-.12-5.11-.12-7.67h0v-187.08c0-2.87.09-5.75.2-8.62.07-1.67,1.46-2.6,3.36-2.41,6.64.67,12.2,3.52,16.78,8.34,3.34,3.52,5.8,7.62,7.74,12.04,3.37,7.66,5.28,15.73,6.71,23.93,2.09,12,2.77,24.14,3.24,36.27.01.33.02.66.03.99.53,14.06.37,28.11-.61,42.17Z"/>
  <path class="cls-1" d="M1667.56,2889.32c-.36-1.22-.67-2.46-.95-3.71-2.34-10.32-3.59-20.78-3.8-31.36-.17-8.63-.33-17.27-.36-25.9-.05-18.23.07-36.45-.05-54.68-.08-12.84-1.71-25.5-5.38-37.85-2.29-7.69-5.4-15.03-9.81-21.77-6.33-9.66-14.66-16.82-25.75-20.49-1.21-.4-2.43-.72-3.95-1.17.34-.93.4-1.99.96-2.4,2.55-1.92,5.33-3.53,7.85-5.48,8.73-6.75,15.45-15.23,20.88-24.77,6.21-10.91,10.5-22.58,13.65-34.69,3.31-12.71,5.3-25.64,6.49-38.72,1.69-18.54,2-37.04-.81-55.48-1.84-12.07-5.1-23.73-10.67-34.67-9.93-19.51-25.28-32.62-46.1-39.36-10.73-3.47-21.78-4.9-33-5.37s-22.36.7-33.47,2.02c-5.7.67-11.36,1.88-16.82,3.74-1.8.61-3.56,1.4-5.27,2.26-1.23.62-1.82,1.88-1.73,3.18.35,4.77,1.03,9.54,1.22,14.32.4,10.22.8,20.45.8,30.68.06,114.16.07,228.32,0,342.48-.01,15.02-.11,30.06-1.83,45.02-.28,2.44.91,3.82,3.1,3.63,3.18-.28,6.37-.55,9.54-.98,9.56-1.29,19.12-1.23,28.69-.08,4.74.57,9.5.92,14,1.34,2.18-2.16,1.43-4.51,1.18-6.63-1.67-14.33-1.69-28.72-1.7-43.11-.03-42.85-.03-85.7-.03-128.55,0-2.56.08-5.12.18-7.67.08-1.83,1.27-2.79,3.18-2.66,8.81.58,15.88,4.42,21.2,11.45,2.72,3.61,4.67,7.64,6.07,11.91,2.09,6.4,3.57,12.93,4.08,19.67.65,8.61,1.19,17.22,1.11,25.87-.11,12.47-.08,24.94-.01,37.41.08,14.38.29,28.77.41,43.16.08,9.62,1.13,19.15,2.45,28.65.39,2.84,1.13,5.63,1.75,8.44.28,1.27,1.49,2.08,2.86,1.94,2.87-.29,5.73-.54,8.58-.95,11.48-1.63,22.91-1.46,34.41.03,11.01,1.42,10.02,2.19,6.85-8.7h0ZM1612.63,2581.67c-.27,16.96-1.25,33.87-3.64,50.68-1.27,8.87-3.14,17.63-6.05,26.12-2.08,6.07-4.75,11.87-8.74,16.98-2.16,2.76-4.64,5.06-7.51,6.79-.12.07-.25.13-.37.2-.46.27-.92.53-1.4.76-.07.04-.15.07-.23.1-1.14.55-2.34,1.02-3.6,1.4-1.48.44-3.13.39-4.7.37h0c-.47,0-1.09-.55-1.38-1.01-.32-.51-.45-1.2-.47-1.82-.08-2.24-.12-4.48-.12-6.71,0-63.02,0-126.03.01-189.05,0-2.86.23-5.73.39-8.59.04-.76,1.22-1.6,2.08-1.58h0c7.48.21,13.51,3.47,18.46,8.88,3.49,3.82,5.94,8.31,7.89,13.08,2.79,6.85,4.57,13.96,5.81,21.23,2.21,12.95,3.17,26.02,3.51,39.14.2,7.67.04,15.35.04,23.03h.02Z"/>
  <path class="cls-1" d="M1874.66,2897.38c-1.19-2.95-2.43-5.87-3.76-8.75-5.76-12.51-10.87-25.25-13.51-38.84-.86-4.39-1.67-8.79-2.48-13.19-4.74-25.77-9.43-51.55-14.22-77.31-5.43-29.21-10.98-58.41-16.4-87.63-6.06-32.67-12.01-65.37-18.06-98.05-6.92-37.39-13.89-74.77-20.84-112.16-1.19-6.38-1.47-6.72-8.08-6.66-3.47.03-7.03-.66-10.65.92h.04c-.62,2.39-1.39,4.82-1.87,7.3-1.57,8.16-2.99,16.35-4.55,24.51-6.12,32.01-12.33,64.01-18.42,96.03-7.35,38.61-14.57,77.25-21.91,115.86-6.09,32.02-12.31,64.02-18.43,96.03-5.71,29.81-11.37,59.64-17.04,89.46-.72,3.77-1.39,7.54-2.06,11.32-.26,1.44.73,2.68,2.04,2.57,1.9-.16,3.83-.24,5.71-.57,7.96-1.39,15.9-1.26,23.87-.04,2.84.43,5.71.66,8.58.84.48.03,1.28-.56,1.45-1.04.63-1.8,1.25-3.64,1.52-5.52,2.17-14.86,4.23-29.74,6.38-44.61,1.32-9.17,2.74-18.33,4.13-27.49.19-1.24,1.38-2.31,2.56-2.44.32-.03.63-.17.94-.17,18.86.01,37.72.02,56.58.09.86,0,1.73.59,2.83.99.63,3.79,1.32,7.55,1.88,11.34,1.48,10.12,2.67,20.29,4.42,30.36,1.93,11.1,2.75,22.2,1.82,33.42-.08.95-.05,1.91-.05,2.87-.01,1.2,1.29,2.27,2.61,2.13,2.86-.31,5.73-.55,8.58-.97,14.34-2.1,28.67-1.96,43.02-.2,4.1.5,8.24.7,12.37.96.75.05,1.28-.66,1-1.36h0ZM1791.11,2790.54c-7.98.03-15.96.01-23.95.01v.09h0v.02h0c-6.39-.01-12.77,0-19.16-.01-1.59,0-3.19-.08-4.78-.16-1.17-.06-2.51-1.42-2.41-2.5h0c.04-.47.08-.93.12-1.4.21-2.49.41-4.97.74-7.44.03-.23.05-.46.09-.69,2.23-15.81,4.56-31.59,6.78-47.4s4.32-31.63,6.52-47.44c1.58-11.38,3.28-22.75,4.87-34.13,1.6-11.38,3.12-22.77,4.7-34.15.17-1.24.41-2.51.84-3.68.15-.41.95-.62,1.49-.82.12-.04.54.33.58.55.7,3.75,1.44,7.5,2.01,11.27,2.23,14.83,4.37,29.68,6.59,44.52.45,2.98.9,5.96,1.35,8.94,1.34,8.87,2.68,17.73,4.03,26.6.45,2.99.91,5.97,1.36,8.96,2.19,14.52,4.34,29.05,6.52,43.57,1.04,6.94,2.14,13.88,3.15,20.83.55,3.79.98,7.6,1.41,11.41.02.21.02.41,0,.61-.13,1.39-1.29,2.45-2.85,2.45h0Z"/>
  <path class="cls-1" d="M1328.65,2895.68c-1.94-4.38-3.93-8.74-5.89-13.11-5.36-12-9.51-24.36-11.64-37.41-1.85-11.35-4.24-22.61-6.35-33.92-3.46-18.53-6.9-37.07-10.33-55.61-4.12-22.31-8.21-44.63-12.34-66.94-4.25-22.94-8.53-45.87-12.8-68.8-3.51-18.84-7.05-37.69-10.55-56.54s-6.99-37.71-10.47-56.56c-2.73-14.77-5.38-29.55-8.2-44.3-.46-2.41-.5-5.09-2.66-7.39-4.52-.69-9.29-.37-14.05-.21-.99.03-2.46,1.31-2.73,2.36-.4,1.55-.79,3.1-1.09,4.66-1.56,8.17-3.05,16.34-4.61,24.5-4.8,25.11-9.66,50.21-14.44,75.32-4.18,21.97-8.27,43.97-12.45,65.94-4.78,25.11-9.66,50.21-14.43,75.32-6.02,31.71-11.95,63.44-17.99,95.14-5.44,28.57-10.97,57.11-16.46,85.67-.6,3.14-1.25,6.27-1.79,9.42-.21,1.24-.19,2.53-.26,3.8-.05.88.94,1.88,1.84,1.74,12.1-1.94,24.18-1.83,36.26.19,2.65.45,3.69-.3,4.08-2.7,1.21-7.57,2.41-15.15,3.51-22.74,2.19-15.18,4.28-30.38,6.48-45.56.45-3.12,1.21-6.21,1.77-8.99l.03-.04c2.02-1.51,3.99-1.28,5.88-1.28,16.95-.02,33.89-.02,50.84,0,1.27,0,2.6,0,3.79.36.78.24,1.59,1,2,1.74.45.79.48,1.84.62,2.78,1.8,12.01,3.53,24.03,5.4,36.03,1.33,8.54,2.67,17.06,2.43,25.74-.09,3.52-.23,7.03-.3,10.55-.02.94.02,1.93.29,2.81.15.48.87,1.14,1.29,1.11,3.5-.23,7.01-.46,10.48-.95,13.7-1.92,27.4-1.8,41.11-.16,3.17.38,6.36.66,9.54.98.63.06,1.27.07,1.91.1,1.86.08,3.01-1.4,2.28-3.05h0ZM1247.19,2789.94c-.49.33-1.1.53-1.77.57-1.27.07-2.55.13-3.83.14-13.09.01-26.19.01-39.28,0-1.59,0-3.19-.1-4.78-.21-1.65-.11-2.63-1.53-2.42-3.4.04-.32.04-.64.09-.95,3.08-22.13,6.13-44.27,9.25-66.4,2.9-20.55,5.91-41.08,8.8-61.62,2.18-15.49,4.26-30.99,6.41-46.49.09-.62.38-1.2.59-1.84h.01v-.02c.47.27,1.17.44,1.35.83.52,1.15,1,2.37,1.19,3.61,2.18,14.52,4.26,29.06,6.43,43.58,2.22,14.84,4.52,29.66,6.76,44.5,2.18,14.52,4.32,29.05,6.5,43.57,1.65,11.04,3.35,22.09,4.98,33.14.42,2.84.69,5.7.95,8.56.09,1.01-.41,1.89-1.23,2.43h0Z"/>
</svg>